<?xml version="1.0" encoding="utf-8"?>
<!-- Generator: Adobe Illustrator 26.5.0, SVG Export Plug-In . SVG Version: 6.00 Build 0)  -->
<svg version="1.1" id="레이어_1" xmlns="http://www.w3.org/2000/svg" xmlns:xlink="http://www.w3.org/1999/xlink" x="0px"
	 y="0px" viewBox="0 0 71 71" style="enable-background:new 0 0 71 71;" xml:space="preserve">
<style type="text/css">
	.st0{fill:#FFFFFF;stroke:#1A233E;stroke-width:1.4;stroke-miterlimit:10;}
	.st1{fill:#FFFFFF;stroke:#1A233E;stroke-width:1.4;stroke-linejoin:round;stroke-miterlimit:10;}
	.st2{fill:#FFFFFF;stroke:#1A233E;stroke-width:1.4;stroke-linecap:round;stroke-linejoin:round;stroke-miterlimit:10;}
	.st3{fill:none;stroke:#1A233E;stroke-width:1.4;stroke-linejoin:round;stroke-miterlimit:10;}
	.st4{fill:#95CAEC;stroke:#1A233E;stroke-width:1.4;stroke-miterlimit:10;}
</style>
<g>
	<path class="st0" d="M59.39,57.52c-0.01-0.14-0.01-0.27-0.04-0.41c-0.03-0.17-0.09-0.34-0.15-0.5c-0.02-0.06-0.03-0.12-0.05-0.19
		l-0.01-0.03c0-0.01-0.01-0.01-0.01-0.02l-7.09-17.41c-0.57-1.39-1.88-2.24-3.29-2.29v-0.01H35.5H22.25v0.01
		c-1.41,0.05-2.72,0.9-3.29,2.29l-7.09,17.41c0,0.01-0.01,0.01-0.01,0.02l-0.01,0.03c-0.02,0.06-0.03,0.12-0.05,0.19
		c-0.06,0.16-0.11,0.33-0.15,0.5c-0.03,0.14-0.03,0.27-0.04,0.41c-0.01,0.1-0.03,0.19-0.03,0.29c0,0.01,0,0.02,0,0.02
		c0,0.15,0.03,0.3,0.05,0.45c0.14,1.08,0.73,2.01,1.59,2.59c0.01,0.01,0.02,0.01,0.03,0.02c0.19,0.13,0.4,0.24,0.62,0.33
		c0,0,0.01,0,0.01,0.01c0.05,0.02,0.1,0.03,0.15,0.04c0.18,0.06,0.35,0.12,0.54,0.16c0.13,0.03,0.26,0.03,0.4,0.04
		c0.1,0.01,0.2,0.03,0.3,0.03h8.87H35.5h11.36h8.87c0.1,0,0.2-0.02,0.3-0.03c0.13-0.01,0.26-0.01,0.4-0.04
		c0.19-0.04,0.36-0.1,0.54-0.16c0.05-0.02,0.1-0.02,0.15-0.04c0,0,0.01,0,0.01-0.01c0.22-0.09,0.42-0.2,0.62-0.33
		c0.01-0.01,0.02-0.01,0.03-0.02c0.86-0.58,1.45-1.51,1.59-2.59c0.02-0.15,0.04-0.3,0.05-0.45c0-0.01,0-0.02,0-0.02
		C59.42,57.71,59.4,57.62,59.39,57.52z"/>
	<polygon class="st1" points="39.05,37.11 35.5,39.81 31.95,37.11 31.95,26.98 39.05,26.98 	"/>
	<path class="st2" d="M21.16,51.47v-5.44c0-1.15,0.94-2.09,2.09-2.09h24.5c1.16,0,2.09,0.94,2.09,2.09v5.44"/>
	<path class="st2" d="M21.96,61.5h-1.59c-1.96,0-3.55-1.59-3.55-3.55l0,0c0-1.96,1.59-3.55,3.55-3.55h1.59
		c1.96,0,3.55,1.59,3.55,3.55l0,0C25.5,59.91,23.92,61.5,21.96,61.5z"/>
	<path class="st2" d="M49.04,61.5h1.59c1.96,0,3.55-1.59,3.55-3.55l0,0c0-1.96-1.59-3.55-3.55-3.55h-1.59
		c-1.96,0-3.55,1.59-3.55,3.55l0,0C45.5,59.91,47.08,61.5,49.04,61.5z"/>
	<g>
		<line class="st1" x1="30.45" y1="52.72" x2="32.69" y2="52.72"/>
		<line class="st1" x1="34.39" y1="52.72" x2="36.62" y2="52.72"/>
		<line class="st1" x1="38.32" y1="52.72" x2="40.55" y2="52.72"/>
	</g>
	<path class="st2" d="M41.71,21.44v6.81c0,1.33-0.66,2.6-1.76,3.37l-2.09,1.46c-1.42,0.99-3.3,0.99-4.72,0l-2.09-1.46
		c-1.1-0.77-1.76-2.04-1.76-3.37v-6.81c0-1.42,1.04-4.7,6.21-4.7C40.66,16.74,41.71,20.02,41.71,21.44z"/>
	<path class="st3" d="M46.97,13.24v5.07c0,1.41,0.56,2.77,1.56,3.77l0.48,0.48"/>
	<path class="st1" d="M41.71,21.44v2.07c-0.06,0.01-0.12,0.01-0.19,0.01c-2.39,0-4.53-1.04-6.02-2.67
		c-1.49,1.63-3.63,2.67-6.02,2.67c-0.06,0-0.12,0-0.18-0.01v-2.07c0-1.42,1.04-4.7,6.21-4.7C40.66,16.74,41.71,20.02,41.71,21.44z"
		/>
	<polygon class="st4" points="46.97,13.24 35.5,16.98 24.03,13.24 35.5,9.5 	"/>
	<path class="st4" d="M41.35,18.97L41.35,18.97l-1.28-4.28l0,0c-0.15-0.89-2.13-1.59-4.57-1.59c-2.43,0-4.42,0.7-4.57,1.59l0,0
		l-1.29,4.28l0.01,0c-0.03,0.09-0.06,0.19-0.06,0.29c0,1.21,2.64,2.19,5.91,2.19c3.26,0,5.91-0.98,5.91-2.19
		C41.41,19.16,41.39,19.07,41.35,18.97z"/>
	<circle class="st4" cx="49.01" cy="22.56" r="1.17"/>
</g>
</svg>
