<svg xmlns="http://www.w3.org/2000/svg" width="45" height="45"><path d="M32.914 17.357c-.25 0-.498.014-.744.037a10.31 10.31 0 00-8.793-4.919 10.314 10.314 0 00-8.793 4.918 7.877 7.877 0 00-8.623 7.841 7.878 7.878 0 0012.301 6.521 10.268 10.268 0 005.116 1.358c1.861 0 3.607-.496 5.115-1.358a7.878 7.878 0 104.421-14.398z" fill="#fff"/><path d="M32.914 33.943a8.648 8.648 0 01-4.455-1.227 11.147 11.147 0 01-10.165 0 8.658 8.658 0 01-4.455 1.227c-4.801 0-8.707-3.906-8.707-8.708s3.906-8.707 8.707-8.707c.104 0 .207.002.313.006a11.075 11.075 0 019.225-4.887 11.08 11.08 0 019.225 4.887c.105-.004.211-.006.313-.006 4.801 0 8.709 3.905 8.709 8.707s-3.909 8.708-8.71 8.708zm-4.422-3.016a.82.82 0 01.467.145 7.007 7.007 0 003.955 1.214 7.057 7.057 0 007.049-7.049c0-3.888-3.162-7.05-7.049-7.05a7.37 7.37 0 00-.666.034.824.824 0 01-.783-.391 9.438 9.438 0 00-8.088-4.524 9.437 9.437 0 00-8.088 4.524.823.823 0 01-.781.391 7.486 7.486 0 00-.668-.034c-3.887 0-7.049 3.162-7.049 7.05a7.057 7.057 0 007.049 7.049 7.002 7.002 0 003.955-1.214.828.828 0 01.879-.034 9.504 9.504 0 004.704 1.249 9.498 9.498 0 004.703-1.249.809.809 0 01.411-.111z" fill="#231f20"/></svg>