<svg xmlns="http://www.w3.org/2000/svg" width="35" height="22"><path d="M7.051 12.719l-.898 7.348a1.572 1.572 0 01-.598 1.058" fill="#f69da5"/><path d="M5.556 21.898a.774.774 0 01-.477-1.385.814.814 0 00.307-.541l.897-7.349a.775.775 0 011.537.186l-.897 7.35a2.34 2.34 0 01-.89 1.572.762.762 0 01-.477.167z" fill="#171617"/><path d="M28.051 16.921l-26.34-3.653c-.914-1.28-1.092-3.163-.352-5.791L27.077.875l.974 16.046z" fill="#f69da5"/><path d="M28.051 17.696a.62.62 0 01-.105-.009l-26.34-3.651a.78.78 0 01-.524-.317c-1.085-1.521-1.24-3.693-.465-6.452a.768.768 0 01.552-.539L26.888.126a.762.762 0 01.646.124.768.768 0 01.318.579l.963 15.937a.775.775 0 01-.757.93h-.007zM2.17 12.551l25.05 3.473-.857-14.165-24.37 6.255c-.476 1.903-.416 3.392.177 4.437z" fill="#171617"/><path fill="none" d="M23.992 1.944l.529 8.761"/><path d="M24.521 11.479a.771.771 0 01-.771-.728l-.529-8.762a.773.773 0 01.725-.819.78.78 0 01.82.727l.529 8.762a.774.774 0 01-.727.819l-.047.001z" fill="#171617"/><path fill="none" d="M20.646 2.573l.397 6.509"/><path d="M21.041 9.857a.773.773 0 01-.771-.728l-.393-6.511a.773.773 0 111.545-.091l.395 6.51a.773.773 0 01-.727.819l-.049.001z" fill="#171617"/><path fill="none" d="M17.319 3.753l.269 4.428"/><path d="M17.587 8.955a.774.774 0 01-.772-.728l-.268-4.428a.773.773 0 111.545-.093l.27 4.428a.775.775 0 01-.726.82l-.049.001z" fill="#171617"/><g><path fill="none" d="M13.88 4.374l.182 3.016"/><path d="M14.061 8.163a.772.772 0 01-.771-.727l-.183-3.016a.773.773 0 111.545-.093l.184 3.016a.774.774 0 01-.727.819l-.048.001z" fill="#171617"/></g><g><path fill="none" d="M31.125 7.913l2.83-.422"/><path d="M31.123 8.688a.775.775 0 01-.114-1.54l2.83-.423a.778.778 0 01.881.651.776.776 0 01-.652.88l-2.83.423a.762.762 0 01-.115.009z" fill="#171617"/></g><g><path fill="none" d="M30.775 4.774l2.33-1.76"/><path d="M30.777 5.548a.775.775 0 01-.469-1.392l2.33-1.76a.773.773 0 11.934 1.235l-2.328 1.76a.773.773 0 01-.467.157z" fill="#171617"/></g><g><path fill="none" d="M31.146 10.789l2.95 1.001"/><path d="M34.096 12.564a.796.796 0 01-.248-.041l-2.949-1a.773.773 0 01-.484-.982.772.772 0 01.98-.484l2.949 1.001a.771.771 0 01.484.981.77.77 0 01-.732.525z" fill="#171617"/></g></svg>