<svg xmlns="http://www.w3.org/2000/svg" xmlns:xlink="http://www.w3.org/1999/xlink" width="400" height="360" viewBox="0 0 400 360">
  <defs>
    <clipPath id="clip-path">
      <rect width="400" height="360" fill="none"/>
    </clipPath>
    <filter id="패스_184" x="0" y="0" width="400" height="360" filterUnits="userSpaceOnUse">
      <feOffset dx="-3" dy="-3" input="SourceAlpha"/>
      <feGaussianBlur stdDeviation="10" result="blur"/>
      <feFlood flood-color="#67a0ff" flood-opacity="0.302" result="color"/>
      <feComposite operator="out" in="SourceGraphic" in2="blur"/>
      <feComposite operator="in" in="color"/>
      <feComposite operator="in" in2="SourceGraphic"/>
    </filter>
    <filter id="스크린샷_2023-10-13_오후_12.58.30" x="18.5" y="18.5" width="369" height="249" filterUnits="userSpaceOnUse">
      <feOffset dx="3" dy="3" input="SourceAlpha"/>
      <feGaussianBlur stdDeviation="1.5" result="blur-2"/>
      <feFlood flood-color="#fff"/>
      <feComposite operator="in" in2="blur-2"/>
      <feComposite in="SourceGraphic"/>
    </filter>
    <filter id="스크린샷_2023-10-13_오후_12.58.30-2" x="18.5" y="18.5" width="369" height="249" filterUnits="userSpaceOnUse">
      <feOffset dx="3" dy="6" input="SourceAlpha"/>
      <feGaussianBlur stdDeviation="5" result="blur-3"/>
      <feFlood flood-opacity="0.161" result="color-2"/>
      <feComposite operator="out" in="SourceGraphic" in2="blur-3"/>
      <feComposite operator="in" in="color-2"/>
      <feComposite operator="in" in2="SourceGraphic"/>
    </filter>
  </defs>
  <g id="그룹_192" data-name="그룹 192" transform="translate(-310 -564)">
    <g id="반복_그리드_1" data-name="반복 그리드 1" transform="translate(310 564)" clip-path="url(#clip-path)">
      <g transform="translate(-310 -564)">
        <g data-type="innerShadowGroup">
          <path id="패스_184-2" data-name="패스 184" d="M20,0H380c11.046,0,20,9.21,20,20.571V339.429C400,350.79,391.046,360,380,360H20c-11.046,0-20-9.21-20-20.571V20.571C0,9.21,8.954,0,20,0Z" transform="translate(310 564)" fill="#eff2f7"/>
          <g transform="matrix(1, 0, 0, 1, 310, 564)" filter="url(#패스_184)">
            <path id="패스_184-3" data-name="패스 184" d="M20,0H380c11.046,0,20,9.21,20,20.571V339.429C400,350.79,391.046,360,380,360H20c-11.046,0-20-9.21-20-20.571V20.571C0,9.21,8.954,0,20,0Z" fill="#fff"/>
          </g>
        </g>
      </g>
    </g>
    <g data-type="innerShadowGroup">
      <g transform="matrix(1, 0, 0, 1, 310, 564)" filter="url(#스크린샷_2023-10-13_오후_12.58.30)">
        <rect id="스크린샷_2023-10-13_오후_12.58.30-3" data-name="스크린샷 2023-10-13 오후 12.58.30" width="360" height="240" rx="20" transform="translate(20 20)" fill="#f6f6f6"/>
      </g>
      <g transform="matrix(1, 0, 0, 1, 310, 564)" filter="url(#스크린샷_2023-10-13_오후_12.58.30-2)">
        <rect id="스크린샷_2023-10-13_오후_12.58.30-4" data-name="스크린샷 2023-10-13 오후 12.58.30" width="360" height="240" rx="20" transform="translate(20 20)" fill="#fff"/>
      </g>
    </g>
  </g>
</svg>
