<svg xmlns="http://www.w3.org/2000/svg" xmlns:xlink="http://www.w3.org/1999/xlink" width="230.679" height="28.189" viewBox="0 0 230.679 28.189">
  <defs>
    <style>
      .cls-1 {
        fill: #c9daf7;
      }

      .cls-2 {
        fill: #fff;
      }

      .cls-3 {
        filter: url(#타원_28-2);
      }

      .cls-4 {
        filter: url(#타원_28);
      }

      .cls-5 {
        filter: url(#패스_127-2);
      }

      .cls-6 {
        filter: url(#패스_127);
      }

      .cls-7 {
        filter: url(#패스_126-2);
      }

      .cls-8 {
        filter: url(#패스_126);
      }

      .cls-9 {
        filter: url(#패스_125-2);
      }

      .cls-10 {
        filter: url(#패스_125);
      }

      .cls-11 {
        filter: url(#패스_124-2);
      }

      .cls-12 {
        filter: url(#패스_124);
      }

      .cls-13 {
        filter: url(#타원_27-2);
      }

      .cls-14 {
        filter: url(#타원_27);
      }

      .cls-15 {
        filter: url(#패스_123-2);
      }

      .cls-16 {
        filter: url(#패스_123);
      }
    </style>
    <filter id="패스_123" x="0" y="0.002" width="28.187" height="28.187" filterUnits="userSpaceOnUse">
      <feOffset dx="3" dy="3" input="SourceAlpha"/>
      <feGaussianBlur stdDeviation="3" result="blur"/>
      <feFlood flood-color="#fff"/>
      <feComposite operator="in" in2="blur"/>
      <feComposite in="SourceGraphic"/>
    </filter>
    <filter id="패스_123-2" x="0" y="0.002" width="28.187" height="28.187" filterUnits="userSpaceOnUse">
      <feOffset dx="3" dy="3" input="SourceAlpha"/>
      <feGaussianBlur stdDeviation="3" result="blur-2"/>
      <feFlood flood-opacity="0.161" result="color"/>
      <feComposite operator="out" in="SourceGraphic" in2="blur-2"/>
      <feComposite operator="in" in="color"/>
      <feComposite operator="in" in2="SourceGraphic"/>
    </filter>
    <filter id="타원_27" x="33.747" y="0" width="28.188" height="28.188" filterUnits="userSpaceOnUse">
      <feOffset dx="3" dy="3" input="SourceAlpha"/>
      <feGaussianBlur stdDeviation="3" result="blur-3"/>
      <feFlood flood-color="#fff"/>
      <feComposite operator="in" in2="blur-3"/>
      <feComposite in="SourceGraphic"/>
    </filter>
    <filter id="타원_27-2" x="33.747" y="0" width="28.188" height="28.188" filterUnits="userSpaceOnUse">
      <feOffset dx="3" dy="3" input="SourceAlpha"/>
      <feGaussianBlur stdDeviation="3" result="blur-4"/>
      <feFlood flood-opacity="0.161" result="color-2"/>
      <feComposite operator="out" in="SourceGraphic" in2="blur-4"/>
      <feComposite operator="in" in="color-2"/>
      <feComposite operator="in" in2="SourceGraphic"/>
    </filter>
    <filter id="패스_124" x="67.496" y="0.002" width="28.187" height="28.187" filterUnits="userSpaceOnUse">
      <feOffset dx="3" dy="3" input="SourceAlpha"/>
      <feGaussianBlur stdDeviation="3" result="blur-5"/>
      <feFlood flood-color="#fff"/>
      <feComposite operator="in" in2="blur-5"/>
      <feComposite in="SourceGraphic"/>
    </filter>
    <filter id="패스_124-2" x="67.496" y="0.002" width="28.187" height="28.187" filterUnits="userSpaceOnUse">
      <feOffset dx="3" dy="3" input="SourceAlpha"/>
      <feGaussianBlur stdDeviation="3" result="blur-6"/>
      <feFlood flood-opacity="0.161" result="color-3"/>
      <feComposite operator="out" in="SourceGraphic" in2="blur-6"/>
      <feComposite operator="in" in="color-3"/>
      <feComposite operator="in" in2="SourceGraphic"/>
    </filter>
    <filter id="패스_125" x="101.245" y="0.002" width="28.187" height="28.187" filterUnits="userSpaceOnUse">
      <feOffset dx="3" dy="3" input="SourceAlpha"/>
      <feGaussianBlur stdDeviation="3" result="blur-7"/>
      <feFlood flood-color="#fff"/>
      <feComposite operator="in" in2="blur-7"/>
      <feComposite in="SourceGraphic"/>
    </filter>
    <filter id="패스_125-2" x="101.245" y="0.002" width="28.187" height="28.187" filterUnits="userSpaceOnUse">
      <feOffset dx="3" dy="3" input="SourceAlpha"/>
      <feGaussianBlur stdDeviation="3" result="blur-8"/>
      <feFlood flood-opacity="0.161" result="color-4"/>
      <feComposite operator="out" in="SourceGraphic" in2="blur-8"/>
      <feComposite operator="in" in="color-4"/>
      <feComposite operator="in" in2="SourceGraphic"/>
    </filter>
    <filter id="패스_126" x="134.993" y="0.002" width="28.187" height="28.187" filterUnits="userSpaceOnUse">
      <feOffset dx="3" dy="3" input="SourceAlpha"/>
      <feGaussianBlur stdDeviation="3" result="blur-9"/>
      <feFlood flood-color="#fff"/>
      <feComposite operator="in" in2="blur-9"/>
      <feComposite in="SourceGraphic"/>
    </filter>
    <filter id="패스_126-2" x="134.993" y="0.002" width="28.187" height="28.187" filterUnits="userSpaceOnUse">
      <feOffset dx="3" dy="3" input="SourceAlpha"/>
      <feGaussianBlur stdDeviation="3" result="blur-10"/>
      <feFlood flood-opacity="0.161" result="color-5"/>
      <feComposite operator="out" in="SourceGraphic" in2="blur-10"/>
      <feComposite operator="in" in="color-5"/>
      <feComposite operator="in" in2="SourceGraphic"/>
    </filter>
    <filter id="패스_127" x="168.741" y="0.002" width="28.187" height="28.187" filterUnits="userSpaceOnUse">
      <feOffset dx="3" dy="3" input="SourceAlpha"/>
      <feGaussianBlur stdDeviation="3" result="blur-11"/>
      <feFlood flood-color="#fff"/>
      <feComposite operator="in" in2="blur-11"/>
      <feComposite in="SourceGraphic"/>
    </filter>
    <filter id="패스_127-2" x="168.741" y="0.002" width="28.187" height="28.187" filterUnits="userSpaceOnUse">
      <feOffset dx="3" dy="3" input="SourceAlpha"/>
      <feGaussianBlur stdDeviation="3" result="blur-12"/>
      <feFlood flood-opacity="0.161" result="color-6"/>
      <feComposite operator="out" in="SourceGraphic" in2="blur-12"/>
      <feComposite operator="in" in="color-6"/>
      <feComposite operator="in" in2="SourceGraphic"/>
    </filter>
    <filter id="타원_28" x="202.491" y="0" width="28.188" height="28.188" filterUnits="userSpaceOnUse">
      <feOffset dx="3" dy="3" input="SourceAlpha"/>
      <feGaussianBlur stdDeviation="3" result="blur-13"/>
      <feFlood flood-color="#fff"/>
      <feComposite operator="in" in2="blur-13"/>
      <feComposite in="SourceGraphic"/>
    </filter>
    <filter id="타원_28-2" x="202.491" y="0" width="28.188" height="28.188" filterUnits="userSpaceOnUse">
      <feOffset dx="3" dy="3" input="SourceAlpha"/>
      <feGaussianBlur stdDeviation="3" result="blur-14"/>
      <feFlood flood-opacity="0.161" result="color-7"/>
      <feComposite operator="out" in="SourceGraphic" in2="blur-14"/>
      <feComposite operator="in" in="color-7"/>
      <feComposite operator="in" in2="SourceGraphic"/>
    </filter>
  </defs>
  <g id="그룹_142" data-name="그룹 142" transform="translate(-518.24 -1994.947)">
    <g data-type="innerShadowGroup">
      <g class="cls-16" transform="matrix(1, 0, 0, 1, 518.24, 1994.95)">
        <path id="패스_123-3" data-name="패스 123" class="cls-1" d="M394.6,148.6a5.093,5.093,0,1,1-5.09,5.09A5.091,5.091,0,0,1,394.6,148.6Z" transform="translate(-383.51 -142.59)"/>
      </g>
      <g class="cls-15" transform="matrix(1, 0, 0, 1, 518.24, 1994.95)">
        <path id="패스_123-4" data-name="패스 123" class="cls-2" d="M394.6,148.6a5.093,5.093,0,1,1-5.09,5.09A5.091,5.091,0,0,1,394.6,148.6Z" transform="translate(-383.51 -142.59)"/>
      </g>
    </g>
    <g data-type="innerShadowGroup">
      <g class="cls-14" transform="matrix(1, 0, 0, 1, 518.24, 1994.95)">
        <ellipse id="타원_27-3" data-name="타원 27" class="cls-1" cx="5.094" cy="5.094" rx="5.094" ry="5.094" transform="translate(39.75 6)"/>
      </g>
      <g class="cls-13" transform="matrix(1, 0, 0, 1, 518.24, 1994.95)">
        <ellipse id="타원_27-4" data-name="타원 27" class="cls-2" cx="5.094" cy="5.094" rx="5.094" ry="5.094" transform="translate(39.75 6)"/>
      </g>
    </g>
    <g data-type="innerShadowGroup">
      <g class="cls-12" transform="matrix(1, 0, 0, 1, 518.24, 1994.95)">
        <path id="패스_124-3" data-name="패스 124" class="cls-1" d="M405.255,148.6a5.093,5.093,0,1,1-5.1,5.09A5.09,5.09,0,0,1,405.255,148.6Z" transform="translate(-326.66 -142.59)"/>
      </g>
      <g class="cls-11" transform="matrix(1, 0, 0, 1, 518.24, 1994.95)">
        <path id="패스_124-4" data-name="패스 124" class="cls-2" d="M405.255,148.6a5.093,5.093,0,1,1-5.1,5.09A5.09,5.09,0,0,1,405.255,148.6Z" transform="translate(-326.66 -142.59)"/>
      </g>
    </g>
    <g data-type="innerShadowGroup">
      <g class="cls-10" transform="matrix(1, 0, 0, 1, 518.24, 1994.95)">
        <path id="패스_125-3" data-name="패스 125" class="cls-1" d="M410.579,148.6a5.093,5.093,0,1,1-5.1,5.09A5.09,5.09,0,0,1,410.579,148.6Z" transform="translate(-298.24 -142.59)"/>
      </g>
      <g class="cls-9" transform="matrix(1, 0, 0, 1, 518.24, 1994.95)">
        <path id="패스_125-4" data-name="패스 125" class="cls-2" d="M410.579,148.6a5.093,5.093,0,1,1-5.1,5.09A5.09,5.09,0,0,1,410.579,148.6Z" transform="translate(-298.24 -142.59)"/>
      </g>
    </g>
    <g data-type="innerShadowGroup">
      <g class="cls-8" transform="matrix(1, 0, 0, 1, 518.24, 1994.95)">
        <path id="패스_126-3" data-name="패스 126" class="cls-1" d="M415.9,148.6a5.093,5.093,0,1,1-5.1,5.09A5.086,5.086,0,0,1,415.9,148.6Z" transform="translate(-269.81 -142.59)"/>
      </g>
      <g class="cls-7" transform="matrix(1, 0, 0, 1, 518.24, 1994.95)">
        <path id="패스_126-4" data-name="패스 126" class="cls-2" d="M415.9,148.6a5.093,5.093,0,1,1-5.1,5.09A5.086,5.086,0,0,1,415.9,148.6Z" transform="translate(-269.81 -142.59)"/>
      </g>
    </g>
    <g data-type="innerShadowGroup">
      <g class="cls-6" transform="matrix(1, 0, 0, 1, 518.24, 1994.95)">
        <path id="패스_127-3" data-name="패스 127" class="cls-1" d="M421.226,148.6a5.093,5.093,0,1,1-5.1,5.09A5.086,5.086,0,0,1,421.226,148.6Z" transform="translate(-241.39 -142.59)"/>
      </g>
      <g class="cls-5" transform="matrix(1, 0, 0, 1, 518.24, 1994.95)">
        <path id="패스_127-4" data-name="패스 127" class="cls-2" d="M421.226,148.6a5.093,5.093,0,1,1-5.1,5.09A5.086,5.086,0,0,1,421.226,148.6Z" transform="translate(-241.39 -142.59)"/>
      </g>
    </g>
    <g data-type="innerShadowGroup">
      <g class="cls-4" transform="matrix(1, 0, 0, 1, 518.24, 1994.95)">
        <ellipse id="타원_28-3" data-name="타원 28" class="cls-1" cx="5.094" cy="5.094" rx="5.094" ry="5.094" transform="translate(208.49 6)"/>
      </g>
      <g class="cls-3" transform="matrix(1, 0, 0, 1, 518.24, 1994.95)">
        <ellipse id="타원_28-4" data-name="타원 28" class="cls-2" cx="5.094" cy="5.094" rx="5.094" ry="5.094" transform="translate(208.49 6)"/>
      </g>
    </g>
  </g>
</svg>
