<svg id="그룹_96" data-name="그룹 96" xmlns="http://www.w3.org/2000/svg" width="251.521" height="41.989" viewBox="0 0 251.521 41.989">
  <defs>
    <style>
      .cls-1 {
        fill: #c9daf7;
      }
    </style>
  </defs>
  <g id="그룹_79" data-name="그룹 79" transform="translate(0 31.8)">
    <path id="패스_123" data-name="패스 123" class="cls-1" d="M394.6,148.6a5.093,5.093,0,1,1-5.09,5.09A5.091,5.091,0,0,1,394.6,148.6Z" transform="translate(-389.51 -148.595)"/>
    <ellipse id="타원_27" data-name="타원 27" class="cls-1" cx="5.094" cy="5.094" rx="5.094" ry="5.094" transform="translate(33.748)"/>
    <path id="패스_124" data-name="패스 124" class="cls-1" d="M405.255,148.6a5.093,5.093,0,1,1-5.1,5.09A5.09,5.09,0,0,1,405.255,148.6Z" transform="translate(-332.662 -148.595)"/>
    <path id="패스_125" data-name="패스 125" class="cls-1" d="M410.579,148.6a5.093,5.093,0,1,1-5.1,5.09A5.09,5.09,0,0,1,410.579,148.6Z" transform="translate(-304.237 -148.595)"/>
    <path id="패스_126" data-name="패스 126" class="cls-1" d="M415.9,148.6a5.093,5.093,0,1,1-5.1,5.09A5.086,5.086,0,0,1,415.9,148.6Z" transform="translate(-275.813 -148.595)"/>
    <path id="패스_127" data-name="패스 127" class="cls-1" d="M421.226,148.6a5.093,5.093,0,1,1-5.1,5.09A5.086,5.086,0,0,1,421.226,148.6Z" transform="translate(-247.388 -148.595)"/>
    <ellipse id="타원_28" data-name="타원 28" class="cls-1" cx="5.094" cy="5.094" rx="5.094" ry="5.094" transform="translate(202.492)"/>
  </g>
  <g id="그룹_80" data-name="그룹 80" transform="translate(38.838 0)">
    <path id="패스_128" data-name="패스 128" class="cls-1" d="M400.734,143.58a5.093,5.093,0,1,1-5.1,5.1A5.1,5.1,0,0,1,400.734,143.58Z" transform="translate(-395.637 -143.58)"/>
    <path id="패스_129" data-name="패스 129" class="cls-1" d="M406.052,143.58a5.093,5.093,0,1,1-5.09,5.1A5.1,5.1,0,0,1,406.052,143.58Z" transform="translate(-367.207 -143.58)"/>
    <ellipse id="타원_29" data-name="타원 29" class="cls-1" cx="5.094" cy="5.094" rx="5.094" ry="5.094" transform="translate(67.501)"/>
    <path id="패스_130" data-name="패스 130" class="cls-1" d="M416.7,143.58a5.093,5.093,0,1,1-5.09,5.1A5.1,5.1,0,0,1,416.7,143.58Z" transform="translate(-310.359 -143.58)"/>
    <path id="패스_131" data-name="패스 131" class="cls-1" d="M422.024,143.58a5.093,5.093,0,1,1-5.09,5.1A5.1,5.1,0,0,1,422.024,143.58Z" transform="translate(-281.934 -143.58)"/>
    <path id="패스_132" data-name="패스 132" class="cls-1" d="M427.348,143.58a5.093,5.093,0,1,1-5.09,5.1A5.1,5.1,0,0,1,427.348,143.58Z" transform="translate(-253.51 -143.58)"/>
    <path id="패스_133" data-name="패스 133" class="cls-1" d="M432.678,143.58a5.093,5.093,0,1,1-5.1,5.1A5.1,5.1,0,0,1,432.678,143.58Z" transform="translate(-225.086 -143.58)"/>
  </g>
</svg>
