<svg xmlns="http://www.w3.org/2000/svg" xmlns:xlink="http://www.w3.org/1999/xlink" width="269.521" height="59.989" viewBox="0 0 269.521 59.989">
  <defs>
    <filter id="패스_123" x="0" y="31.802" width="28.187" height="28.187" filterUnits="userSpaceOnUse">
      <feOffset dx="3" dy="3" input="SourceAlpha"/>
      <feGaussianBlur stdDeviation="3" result="blur"/>
      <feFlood flood-color="#fff"/>
      <feComposite operator="in" in2="blur"/>
      <feComposite in="SourceGraphic"/>
    </filter>
    <filter id="패스_123-2" x="0" y="31.802" width="28.187" height="28.187" filterUnits="userSpaceOnUse">
      <feOffset dx="3" dy="3" input="SourceAlpha"/>
      <feGaussianBlur stdDeviation="3" result="blur-2"/>
      <feFlood flood-opacity="0.161" result="color"/>
      <feComposite operator="out" in="SourceGraphic" in2="blur-2"/>
      <feComposite operator="in" in="color"/>
      <feComposite operator="in" in2="SourceGraphic"/>
    </filter>
    <filter id="타원_27" x="33.747" y="31.8" width="28.188" height="28.188" filterUnits="userSpaceOnUse">
      <feOffset dx="3" dy="3" input="SourceAlpha"/>
      <feGaussianBlur stdDeviation="3" result="blur-3"/>
      <feFlood flood-color="#fff"/>
      <feComposite operator="in" in2="blur-3"/>
      <feComposite in="SourceGraphic"/>
    </filter>
    <filter id="타원_27-2" x="33.747" y="31.8" width="28.188" height="28.188" filterUnits="userSpaceOnUse">
      <feOffset dx="3" dy="3" input="SourceAlpha"/>
      <feGaussianBlur stdDeviation="3" result="blur-4"/>
      <feFlood flood-opacity="0.161" result="color-2"/>
      <feComposite operator="out" in="SourceGraphic" in2="blur-4"/>
      <feComposite operator="in" in="color-2"/>
      <feComposite operator="in" in2="SourceGraphic"/>
    </filter>
    <filter id="패스_124" x="67.496" y="31.802" width="28.187" height="28.187" filterUnits="userSpaceOnUse">
      <feOffset dx="3" dy="3" input="SourceAlpha"/>
      <feGaussianBlur stdDeviation="3" result="blur-5"/>
      <feFlood flood-color="#fff"/>
      <feComposite operator="in" in2="blur-5"/>
      <feComposite in="SourceGraphic"/>
    </filter>
    <filter id="패스_124-2" x="67.496" y="31.802" width="28.187" height="28.187" filterUnits="userSpaceOnUse">
      <feOffset dx="3" dy="3" input="SourceAlpha"/>
      <feGaussianBlur stdDeviation="3" result="blur-6"/>
      <feFlood flood-opacity="0.161" result="color-3"/>
      <feComposite operator="out" in="SourceGraphic" in2="blur-6"/>
      <feComposite operator="in" in="color-3"/>
      <feComposite operator="in" in2="SourceGraphic"/>
    </filter>
    <filter id="패스_125" x="101.245" y="31.802" width="28.187" height="28.187" filterUnits="userSpaceOnUse">
      <feOffset dx="3" dy="3" input="SourceAlpha"/>
      <feGaussianBlur stdDeviation="3" result="blur-7"/>
      <feFlood flood-color="#fff"/>
      <feComposite operator="in" in2="blur-7"/>
      <feComposite in="SourceGraphic"/>
    </filter>
    <filter id="패스_125-2" x="101.245" y="31.802" width="28.187" height="28.187" filterUnits="userSpaceOnUse">
      <feOffset dx="3" dy="3" input="SourceAlpha"/>
      <feGaussianBlur stdDeviation="3" result="blur-8"/>
      <feFlood flood-opacity="0.161" result="color-4"/>
      <feComposite operator="out" in="SourceGraphic" in2="blur-8"/>
      <feComposite operator="in" in="color-4"/>
      <feComposite operator="in" in2="SourceGraphic"/>
    </filter>
    <filter id="패스_126" x="134.993" y="31.802" width="28.187" height="28.187" filterUnits="userSpaceOnUse">
      <feOffset dx="3" dy="3" input="SourceAlpha"/>
      <feGaussianBlur stdDeviation="3" result="blur-9"/>
      <feFlood flood-color="#fff"/>
      <feComposite operator="in" in2="blur-9"/>
      <feComposite in="SourceGraphic"/>
    </filter>
    <filter id="패스_126-2" x="134.993" y="31.802" width="28.187" height="28.187" filterUnits="userSpaceOnUse">
      <feOffset dx="3" dy="3" input="SourceAlpha"/>
      <feGaussianBlur stdDeviation="3" result="blur-10"/>
      <feFlood flood-opacity="0.161" result="color-5"/>
      <feComposite operator="out" in="SourceGraphic" in2="blur-10"/>
      <feComposite operator="in" in="color-5"/>
      <feComposite operator="in" in2="SourceGraphic"/>
    </filter>
    <filter id="패스_127" x="168.741" y="31.802" width="28.187" height="28.187" filterUnits="userSpaceOnUse">
      <feOffset dx="3" dy="3" input="SourceAlpha"/>
      <feGaussianBlur stdDeviation="3" result="blur-11"/>
      <feFlood flood-color="#fff"/>
      <feComposite operator="in" in2="blur-11"/>
      <feComposite in="SourceGraphic"/>
    </filter>
    <filter id="패스_127-2" x="168.741" y="31.802" width="28.187" height="28.187" filterUnits="userSpaceOnUse">
      <feOffset dx="3" dy="3" input="SourceAlpha"/>
      <feGaussianBlur stdDeviation="3" result="blur-12"/>
      <feFlood flood-opacity="0.161" result="color-6"/>
      <feComposite operator="out" in="SourceGraphic" in2="blur-12"/>
      <feComposite operator="in" in="color-6"/>
      <feComposite operator="in" in2="SourceGraphic"/>
    </filter>
    <filter id="타원_28" x="202.491" y="31.8" width="28.188" height="28.188" filterUnits="userSpaceOnUse">
      <feOffset dx="3" dy="3" input="SourceAlpha"/>
      <feGaussianBlur stdDeviation="3" result="blur-13"/>
      <feFlood flood-color="#fff"/>
      <feComposite operator="in" in2="blur-13"/>
      <feComposite in="SourceGraphic"/>
    </filter>
    <filter id="타원_28-2" x="202.491" y="31.8" width="28.188" height="28.188" filterUnits="userSpaceOnUse">
      <feOffset dx="3" dy="3" input="SourceAlpha"/>
      <feGaussianBlur stdDeviation="3" result="blur-14"/>
      <feFlood flood-opacity="0.161" result="color-7"/>
      <feComposite operator="out" in="SourceGraphic" in2="blur-14"/>
      <feComposite operator="in" in="color-7"/>
      <feComposite operator="in" in2="SourceGraphic"/>
    </filter>
    <filter id="패스_128" x="38.838" y="0" width="28.193" height="28.187" filterUnits="userSpaceOnUse">
      <feOffset dx="3" dy="3" input="SourceAlpha"/>
      <feGaussianBlur stdDeviation="3" result="blur-15"/>
      <feFlood flood-color="#fff"/>
      <feComposite operator="in" in2="blur-15"/>
      <feComposite in="SourceGraphic"/>
    </filter>
    <filter id="패스_128-2" x="38.838" y="0" width="28.193" height="28.187" filterUnits="userSpaceOnUse">
      <feOffset dx="3" dy="3" input="SourceAlpha"/>
      <feGaussianBlur stdDeviation="3" result="blur-16"/>
      <feFlood flood-opacity="0.161" result="color-8"/>
      <feComposite operator="out" in="SourceGraphic" in2="blur-16"/>
      <feComposite operator="in" in="color-8"/>
      <feComposite operator="in" in2="SourceGraphic"/>
    </filter>
    <filter id="패스_129" x="72.593" y="0" width="28.187" height="28.187" filterUnits="userSpaceOnUse">
      <feOffset dx="3" dy="3" input="SourceAlpha"/>
      <feGaussianBlur stdDeviation="3" result="blur-17"/>
      <feFlood flood-color="#fff"/>
      <feComposite operator="in" in2="blur-17"/>
      <feComposite in="SourceGraphic"/>
    </filter>
    <filter id="패스_129-2" x="72.593" y="0" width="28.187" height="28.187" filterUnits="userSpaceOnUse">
      <feOffset dx="3" dy="3" input="SourceAlpha"/>
      <feGaussianBlur stdDeviation="3" result="blur-18"/>
      <feFlood flood-opacity="0.161" result="color-9"/>
      <feComposite operator="out" in="SourceGraphic" in2="blur-18"/>
      <feComposite operator="in" in="color-9"/>
      <feComposite operator="in" in2="SourceGraphic"/>
    </filter>
    <filter id="타원_29" x="106.339" y="0" width="28.188" height="28.188" filterUnits="userSpaceOnUse">
      <feOffset dx="3" dy="3" input="SourceAlpha"/>
      <feGaussianBlur stdDeviation="3" result="blur-19"/>
      <feFlood flood-color="#fff"/>
      <feComposite operator="in" in2="blur-19"/>
      <feComposite in="SourceGraphic"/>
    </filter>
    <filter id="타원_29-2" x="106.339" y="0" width="28.188" height="28.188" filterUnits="userSpaceOnUse">
      <feOffset dx="3" dy="3" input="SourceAlpha"/>
      <feGaussianBlur stdDeviation="3" result="blur-20"/>
      <feFlood flood-opacity="0.161" result="color-10"/>
      <feComposite operator="out" in="SourceGraphic" in2="blur-20"/>
      <feComposite operator="in" in="color-10"/>
      <feComposite operator="in" in2="SourceGraphic"/>
    </filter>
    <filter id="패스_130" x="140.089" y="0" width="28.187" height="28.187" filterUnits="userSpaceOnUse">
      <feOffset dx="3" dy="3" input="SourceAlpha"/>
      <feGaussianBlur stdDeviation="3" result="blur-21"/>
      <feFlood flood-color="#fff"/>
      <feComposite operator="in" in2="blur-21"/>
      <feComposite in="SourceGraphic"/>
    </filter>
    <filter id="패스_130-2" x="140.089" y="0" width="28.187" height="28.187" filterUnits="userSpaceOnUse">
      <feOffset dx="3" dy="3" input="SourceAlpha"/>
      <feGaussianBlur stdDeviation="3" result="blur-22"/>
      <feFlood flood-opacity="0.161" result="color-11"/>
      <feComposite operator="out" in="SourceGraphic" in2="blur-22"/>
      <feComposite operator="in" in="color-11"/>
      <feComposite operator="in" in2="SourceGraphic"/>
    </filter>
    <filter id="패스_131" x="173.838" y="0" width="28.187" height="28.187" filterUnits="userSpaceOnUse">
      <feOffset dx="3" dy="3" input="SourceAlpha"/>
      <feGaussianBlur stdDeviation="3" result="blur-23"/>
      <feFlood flood-color="#fff"/>
      <feComposite operator="in" in2="blur-23"/>
      <feComposite in="SourceGraphic"/>
    </filter>
    <filter id="패스_131-2" x="173.838" y="0" width="28.187" height="28.187" filterUnits="userSpaceOnUse">
      <feOffset dx="3" dy="3" input="SourceAlpha"/>
      <feGaussianBlur stdDeviation="3" result="blur-24"/>
      <feFlood flood-opacity="0.161" result="color-12"/>
      <feComposite operator="out" in="SourceGraphic" in2="blur-24"/>
      <feComposite operator="in" in="color-12"/>
      <feComposite operator="in" in2="SourceGraphic"/>
    </filter>
    <filter id="패스_132" x="207.586" y="0" width="28.186" height="28.187" filterUnits="userSpaceOnUse">
      <feOffset dx="3" dy="3" input="SourceAlpha"/>
      <feGaussianBlur stdDeviation="3" result="blur-25"/>
      <feFlood flood-color="#fff"/>
      <feComposite operator="in" in2="blur-25"/>
      <feComposite in="SourceGraphic"/>
    </filter>
    <filter id="패스_132-2" x="207.586" y="0" width="28.186" height="28.187" filterUnits="userSpaceOnUse">
      <feOffset dx="3" dy="3" input="SourceAlpha"/>
      <feGaussianBlur stdDeviation="3" result="blur-26"/>
      <feFlood flood-opacity="0.161" result="color-13"/>
      <feComposite operator="out" in="SourceGraphic" in2="blur-26"/>
      <feComposite operator="in" in="color-13"/>
      <feComposite operator="in" in2="SourceGraphic"/>
    </filter>
    <filter id="패스_133" x="241.335" y="0" width="28.187" height="28.187" filterUnits="userSpaceOnUse">
      <feOffset dx="3" dy="3" input="SourceAlpha"/>
      <feGaussianBlur stdDeviation="3" result="blur-27"/>
      <feFlood flood-color="#fff"/>
      <feComposite operator="in" in2="blur-27"/>
      <feComposite in="SourceGraphic"/>
    </filter>
    <filter id="패스_133-2" x="241.335" y="0" width="28.187" height="28.187" filterUnits="userSpaceOnUse">
      <feOffset dx="3" dy="3" input="SourceAlpha"/>
      <feGaussianBlur stdDeviation="3" result="blur-28"/>
      <feFlood flood-opacity="0.161" result="color-14"/>
      <feComposite operator="out" in="SourceGraphic" in2="blur-28"/>
      <feComposite operator="in" in="color-14"/>
      <feComposite operator="in" in2="SourceGraphic"/>
    </filter>
  </defs>
  <g id="그룹_134" data-name="그룹 134" transform="translate(-942.479 -85.147)">
    <g data-type="innerShadowGroup">
      <g transform="matrix(1, 0, 0, 1, 942.48, 85.15)" filter="url(#패스_123)">
        <path id="패스_123-3" data-name="패스 123" d="M394.6,148.6a5.093,5.093,0,1,1-5.09,5.09A5.091,5.091,0,0,1,394.6,148.6Z" transform="translate(-383.51 -110.79)" fill="#c9daf7"/>
      </g>
      <g transform="matrix(1, 0, 0, 1, 942.48, 85.15)" filter="url(#패스_123-2)">
        <path id="패스_123-4" data-name="패스 123" d="M394.6,148.6a5.093,5.093,0,1,1-5.09,5.09A5.091,5.091,0,0,1,394.6,148.6Z" transform="translate(-383.51 -110.79)" fill="#fff"/>
      </g>
    </g>
    <g data-type="innerShadowGroup">
      <g transform="matrix(1, 0, 0, 1, 942.48, 85.15)" filter="url(#타원_27)">
        <ellipse id="타원_27-3" data-name="타원 27" cx="5.094" cy="5.094" rx="5.094" ry="5.094" transform="translate(39.75 37.8)" fill="#c9daf7"/>
      </g>
      <g transform="matrix(1, 0, 0, 1, 942.48, 85.15)" filter="url(#타원_27-2)">
        <ellipse id="타원_27-4" data-name="타원 27" cx="5.094" cy="5.094" rx="5.094" ry="5.094" transform="translate(39.75 37.8)" fill="#fff"/>
      </g>
    </g>
    <g data-type="innerShadowGroup">
      <g transform="matrix(1, 0, 0, 1, 942.48, 85.15)" filter="url(#패스_124)">
        <path id="패스_124-3" data-name="패스 124" d="M405.255,148.6a5.093,5.093,0,1,1-5.1,5.09A5.09,5.09,0,0,1,405.255,148.6Z" transform="translate(-326.66 -110.79)" fill="#c9daf7"/>
      </g>
      <g transform="matrix(1, 0, 0, 1, 942.48, 85.15)" filter="url(#패스_124-2)">
        <path id="패스_124-4" data-name="패스 124" d="M405.255,148.6a5.093,5.093,0,1,1-5.1,5.09A5.09,5.09,0,0,1,405.255,148.6Z" transform="translate(-326.66 -110.79)" fill="#fff"/>
      </g>
    </g>
    <g data-type="innerShadowGroup">
      <g transform="matrix(1, 0, 0, 1, 942.48, 85.15)" filter="url(#패스_125)">
        <path id="패스_125-3" data-name="패스 125" d="M410.579,148.6a5.093,5.093,0,1,1-5.1,5.09A5.09,5.09,0,0,1,410.579,148.6Z" transform="translate(-298.24 -110.79)" fill="#c9daf7"/>
      </g>
      <g transform="matrix(1, 0, 0, 1, 942.48, 85.15)" filter="url(#패스_125-2)">
        <path id="패스_125-4" data-name="패스 125" d="M410.579,148.6a5.093,5.093,0,1,1-5.1,5.09A5.09,5.09,0,0,1,410.579,148.6Z" transform="translate(-298.24 -110.79)" fill="#fff"/>
      </g>
    </g>
    <g data-type="innerShadowGroup">
      <g transform="matrix(1, 0, 0, 1, 942.48, 85.15)" filter="url(#패스_126)">
        <path id="패스_126-3" data-name="패스 126" d="M415.9,148.6a5.093,5.093,0,1,1-5.1,5.09A5.086,5.086,0,0,1,415.9,148.6Z" transform="translate(-269.81 -110.79)" fill="#c9daf7"/>
      </g>
      <g transform="matrix(1, 0, 0, 1, 942.48, 85.15)" filter="url(#패스_126-2)">
        <path id="패스_126-4" data-name="패스 126" d="M415.9,148.6a5.093,5.093,0,1,1-5.1,5.09A5.086,5.086,0,0,1,415.9,148.6Z" transform="translate(-269.81 -110.79)" fill="#fff"/>
      </g>
    </g>
    <g data-type="innerShadowGroup">
      <g transform="matrix(1, 0, 0, 1, 942.48, 85.15)" filter="url(#패스_127)">
        <path id="패스_127-3" data-name="패스 127" d="M421.226,148.6a5.093,5.093,0,1,1-5.1,5.09A5.086,5.086,0,0,1,421.226,148.6Z" transform="translate(-241.39 -110.79)" fill="#c9daf7"/>
      </g>
      <g transform="matrix(1, 0, 0, 1, 942.48, 85.15)" filter="url(#패스_127-2)">
        <path id="패스_127-4" data-name="패스 127" d="M421.226,148.6a5.093,5.093,0,1,1-5.1,5.09A5.086,5.086,0,0,1,421.226,148.6Z" transform="translate(-241.39 -110.79)" fill="#fff"/>
      </g>
    </g>
    <g data-type="innerShadowGroup">
      <g transform="matrix(1, 0, 0, 1, 942.48, 85.15)" filter="url(#타원_28)">
        <ellipse id="타원_28-3" data-name="타원 28" cx="5.094" cy="5.094" rx="5.094" ry="5.094" transform="translate(208.49 37.8)" fill="#c9daf7"/>
      </g>
      <g transform="matrix(1, 0, 0, 1, 942.48, 85.15)" filter="url(#타원_28-2)">
        <ellipse id="타원_28-4" data-name="타원 28" cx="5.094" cy="5.094" rx="5.094" ry="5.094" transform="translate(208.49 37.8)" fill="#fff"/>
      </g>
    </g>
    <g data-type="innerShadowGroup">
      <g transform="matrix(1, 0, 0, 1, 942.48, 85.15)" filter="url(#패스_128)">
        <path id="패스_128-3" data-name="패스 128" d="M400.734,143.58a5.093,5.093,0,1,1-5.1,5.1A5.1,5.1,0,0,1,400.734,143.58Z" transform="translate(-350.8 -137.58)" fill="#c9daf7"/>
      </g>
      <g transform="matrix(1, 0, 0, 1, 942.48, 85.15)" filter="url(#패스_128-2)">
        <path id="패스_128-4" data-name="패스 128" d="M400.734,143.58a5.093,5.093,0,1,1-5.1,5.1A5.1,5.1,0,0,1,400.734,143.58Z" transform="translate(-350.8 -137.58)" fill="#fff"/>
      </g>
    </g>
    <g data-type="innerShadowGroup">
      <g transform="matrix(1, 0, 0, 1, 942.48, 85.15)" filter="url(#패스_129)">
        <path id="패스_129-3" data-name="패스 129" d="M406.052,143.58a5.093,5.093,0,1,1-5.09,5.1A5.1,5.1,0,0,1,406.052,143.58Z" transform="translate(-322.37 -137.58)" fill="#c9daf7"/>
      </g>
      <g transform="matrix(1, 0, 0, 1, 942.48, 85.15)" filter="url(#패스_129-2)">
        <path id="패스_129-4" data-name="패스 129" d="M406.052,143.58a5.093,5.093,0,1,1-5.09,5.1A5.1,5.1,0,0,1,406.052,143.58Z" transform="translate(-322.37 -137.58)" fill="#fff"/>
      </g>
    </g>
    <g data-type="innerShadowGroup">
      <g transform="matrix(1, 0, 0, 1, 942.48, 85.15)" filter="url(#타원_29)">
        <ellipse id="타원_29-3" data-name="타원 29" cx="5.094" cy="5.094" rx="5.094" ry="5.094" transform="translate(112.34 6)" fill="#c9daf7"/>
      </g>
      <g transform="matrix(1, 0, 0, 1, 942.48, 85.15)" filter="url(#타원_29-2)">
        <ellipse id="타원_29-4" data-name="타원 29" cx="5.094" cy="5.094" rx="5.094" ry="5.094" transform="translate(112.34 6)" fill="#fff"/>
      </g>
    </g>
    <g data-type="innerShadowGroup">
      <g transform="matrix(1, 0, 0, 1, 942.48, 85.15)" filter="url(#패스_130)">
        <path id="패스_130-3" data-name="패스 130" d="M416.7,143.58a5.093,5.093,0,1,1-5.09,5.1A5.1,5.1,0,0,1,416.7,143.58Z" transform="translate(-265.52 -137.58)" fill="#c9daf7"/>
      </g>
      <g transform="matrix(1, 0, 0, 1, 942.48, 85.15)" filter="url(#패스_130-2)">
        <path id="패스_130-4" data-name="패스 130" d="M416.7,143.58a5.093,5.093,0,1,1-5.09,5.1A5.1,5.1,0,0,1,416.7,143.58Z" transform="translate(-265.52 -137.58)" fill="#fff"/>
      </g>
    </g>
    <g data-type="innerShadowGroup">
      <g transform="matrix(1, 0, 0, 1, 942.48, 85.15)" filter="url(#패스_131)">
        <path id="패스_131-3" data-name="패스 131" d="M422.024,143.58a5.093,5.093,0,1,1-5.09,5.1A5.1,5.1,0,0,1,422.024,143.58Z" transform="translate(-237.1 -137.58)" fill="#c9daf7"/>
      </g>
      <g transform="matrix(1, 0, 0, 1, 942.48, 85.15)" filter="url(#패스_131-2)">
        <path id="패스_131-4" data-name="패스 131" d="M422.024,143.58a5.093,5.093,0,1,1-5.09,5.1A5.1,5.1,0,0,1,422.024,143.58Z" transform="translate(-237.1 -137.58)" fill="#fff"/>
      </g>
    </g>
    <g data-type="innerShadowGroup">
      <g transform="matrix(1, 0, 0, 1, 942.48, 85.15)" filter="url(#패스_132)">
        <path id="패스_132-3" data-name="패스 132" d="M427.348,143.58a5.093,5.093,0,1,1-5.09,5.1A5.1,5.1,0,0,1,427.348,143.58Z" transform="translate(-208.67 -137.58)" fill="#c9daf7"/>
      </g>
      <g transform="matrix(1, 0, 0, 1, 942.48, 85.15)" filter="url(#패스_132-2)">
        <path id="패스_132-4" data-name="패스 132" d="M427.348,143.58a5.093,5.093,0,1,1-5.09,5.1A5.1,5.1,0,0,1,427.348,143.58Z" transform="translate(-208.67 -137.58)" fill="#fff"/>
      </g>
    </g>
    <g data-type="innerShadowGroup">
      <g transform="matrix(1, 0, 0, 1, 942.48, 85.15)" filter="url(#패스_133)">
        <path id="패스_133-3" data-name="패스 133" d="M432.678,143.58a5.093,5.093,0,1,1-5.1,5.1A5.1,5.1,0,0,1,432.678,143.58Z" transform="translate(-180.25 -137.58)" fill="#c9daf7"/>
      </g>
      <g transform="matrix(1, 0, 0, 1, 942.48, 85.15)" filter="url(#패스_133-2)">
        <path id="패스_133-4" data-name="패스 133" d="M432.678,143.58a5.093,5.093,0,1,1-5.1,5.1A5.1,5.1,0,0,1,432.678,143.58Z" transform="translate(-180.25 -137.58)" fill="#fff"/>
      </g>
    </g>
  </g>
</svg>
