<svg xmlns="http://www.w3.org/2000/svg" xmlns:xlink="http://www.w3.org/1999/xlink" width="269.521" height="59.989" viewBox="0 0 269.521 59.989">
  <defs>
    <style>
      .cls-1 {
        fill: #c9daf7;
      }

      .cls-2 {
        fill: #fff;
      }

      .cls-3 {
        filter: url(#패스_133-2);
      }

      .cls-4 {
        filter: url(#패스_133);
      }

      .cls-5 {
        filter: url(#패스_132-2);
      }

      .cls-6 {
        filter: url(#패스_132);
      }

      .cls-7 {
        filter: url(#패스_131-2);
      }

      .cls-8 {
        filter: url(#패스_131);
      }

      .cls-9 {
        filter: url(#패스_130-2);
      }

      .cls-10 {
        filter: url(#패스_130);
      }

      .cls-11 {
        filter: url(#타원_29-2);
      }

      .cls-12 {
        filter: url(#타원_29);
      }

      .cls-13 {
        filter: url(#패스_129-2);
      }

      .cls-14 {
        filter: url(#패스_129);
      }

      .cls-15 {
        filter: url(#패스_128-2);
      }

      .cls-16 {
        filter: url(#패스_128);
      }

      .cls-17 {
        filter: url(#타원_28-2);
      }

      .cls-18 {
        filter: url(#타원_28);
      }

      .cls-19 {
        filter: url(#패스_127-2);
      }

      .cls-20 {
        filter: url(#패스_127);
      }

      .cls-21 {
        filter: url(#패스_126-2);
      }

      .cls-22 {
        filter: url(#패스_126);
      }

      .cls-23 {
        filter: url(#패스_125-2);
      }

      .cls-24 {
        filter: url(#패스_125);
      }

      .cls-25 {
        filter: url(#패스_124-2);
      }

      .cls-26 {
        filter: url(#패스_124);
      }

      .cls-27 {
        filter: url(#타원_27-2);
      }

      .cls-28 {
        filter: url(#타원_27);
      }

      .cls-29 {
        filter: url(#패스_123-2);
      }

      .cls-30 {
        filter: url(#패스_123);
      }
    </style>
    <filter id="패스_123" x="0" y="31.802" width="28.187" height="28.187" filterUnits="userSpaceOnUse">
      <feOffset dx="3" dy="3" input="SourceAlpha"/>
      <feGaussianBlur stdDeviation="3" result="blur"/>
      <feFlood flood-color="#fff"/>
      <feComposite operator="in" in2="blur"/>
      <feComposite in="SourceGraphic"/>
    </filter>
    <filter id="패스_123-2" x="0" y="31.802" width="28.187" height="28.187" filterUnits="userSpaceOnUse">
      <feOffset dx="3" dy="3" input="SourceAlpha"/>
      <feGaussianBlur stdDeviation="3" result="blur-2"/>
      <feFlood flood-opacity="0.161" result="color"/>
      <feComposite operator="out" in="SourceGraphic" in2="blur-2"/>
      <feComposite operator="in" in="color"/>
      <feComposite operator="in" in2="SourceGraphic"/>
    </filter>
    <filter id="타원_27" x="33.747" y="31.8" width="28.188" height="28.188" filterUnits="userSpaceOnUse">
      <feOffset dx="3" dy="3" input="SourceAlpha"/>
      <feGaussianBlur stdDeviation="3" result="blur-3"/>
      <feFlood flood-color="#fff"/>
      <feComposite operator="in" in2="blur-3"/>
      <feComposite in="SourceGraphic"/>
    </filter>
    <filter id="타원_27-2" x="33.747" y="31.8" width="28.188" height="28.188" filterUnits="userSpaceOnUse">
      <feOffset dx="3" dy="3" input="SourceAlpha"/>
      <feGaussianBlur stdDeviation="3" result="blur-4"/>
      <feFlood flood-opacity="0.161" result="color-2"/>
      <feComposite operator="out" in="SourceGraphic" in2="blur-4"/>
      <feComposite operator="in" in="color-2"/>
      <feComposite operator="in" in2="SourceGraphic"/>
    </filter>
    <filter id="패스_124" x="67.496" y="31.802" width="28.187" height="28.187" filterUnits="userSpaceOnUse">
      <feOffset dx="3" dy="3" input="SourceAlpha"/>
      <feGaussianBlur stdDeviation="3" result="blur-5"/>
      <feFlood flood-color="#fff"/>
      <feComposite operator="in" in2="blur-5"/>
      <feComposite in="SourceGraphic"/>
    </filter>
    <filter id="패스_124-2" x="67.496" y="31.802" width="28.187" height="28.187" filterUnits="userSpaceOnUse">
      <feOffset dx="3" dy="3" input="SourceAlpha"/>
      <feGaussianBlur stdDeviation="3" result="blur-6"/>
      <feFlood flood-opacity="0.161" result="color-3"/>
      <feComposite operator="out" in="SourceGraphic" in2="blur-6"/>
      <feComposite operator="in" in="color-3"/>
      <feComposite operator="in" in2="SourceGraphic"/>
    </filter>
    <filter id="패스_125" x="101.245" y="31.802" width="28.187" height="28.187" filterUnits="userSpaceOnUse">
      <feOffset dx="3" dy="3" input="SourceAlpha"/>
      <feGaussianBlur stdDeviation="3" result="blur-7"/>
      <feFlood flood-color="#fff"/>
      <feComposite operator="in" in2="blur-7"/>
      <feComposite in="SourceGraphic"/>
    </filter>
    <filter id="패스_125-2" x="101.245" y="31.802" width="28.187" height="28.187" filterUnits="userSpaceOnUse">
      <feOffset dx="3" dy="3" input="SourceAlpha"/>
      <feGaussianBlur stdDeviation="3" result="blur-8"/>
      <feFlood flood-opacity="0.161" result="color-4"/>
      <feComposite operator="out" in="SourceGraphic" in2="blur-8"/>
      <feComposite operator="in" in="color-4"/>
      <feComposite operator="in" in2="SourceGraphic"/>
    </filter>
    <filter id="패스_126" x="134.993" y="31.802" width="28.187" height="28.187" filterUnits="userSpaceOnUse">
      <feOffset dx="3" dy="3" input="SourceAlpha"/>
      <feGaussianBlur stdDeviation="3" result="blur-9"/>
      <feFlood flood-color="#fff"/>
      <feComposite operator="in" in2="blur-9"/>
      <feComposite in="SourceGraphic"/>
    </filter>
    <filter id="패스_126-2" x="134.993" y="31.802" width="28.187" height="28.187" filterUnits="userSpaceOnUse">
      <feOffset dx="3" dy="3" input="SourceAlpha"/>
      <feGaussianBlur stdDeviation="3" result="blur-10"/>
      <feFlood flood-opacity="0.161" result="color-5"/>
      <feComposite operator="out" in="SourceGraphic" in2="blur-10"/>
      <feComposite operator="in" in="color-5"/>
      <feComposite operator="in" in2="SourceGraphic"/>
    </filter>
    <filter id="패스_127" x="168.741" y="31.802" width="28.187" height="28.187" filterUnits="userSpaceOnUse">
      <feOffset dx="3" dy="3" input="SourceAlpha"/>
      <feGaussianBlur stdDeviation="3" result="blur-11"/>
      <feFlood flood-color="#fff"/>
      <feComposite operator="in" in2="blur-11"/>
      <feComposite in="SourceGraphic"/>
    </filter>
    <filter id="패스_127-2" x="168.741" y="31.802" width="28.187" height="28.187" filterUnits="userSpaceOnUse">
      <feOffset dx="3" dy="3" input="SourceAlpha"/>
      <feGaussianBlur stdDeviation="3" result="blur-12"/>
      <feFlood flood-opacity="0.161" result="color-6"/>
      <feComposite operator="out" in="SourceGraphic" in2="blur-12"/>
      <feComposite operator="in" in="color-6"/>
      <feComposite operator="in" in2="SourceGraphic"/>
    </filter>
    <filter id="타원_28" x="202.491" y="31.8" width="28.188" height="28.188" filterUnits="userSpaceOnUse">
      <feOffset dx="3" dy="3" input="SourceAlpha"/>
      <feGaussianBlur stdDeviation="3" result="blur-13"/>
      <feFlood flood-color="#fff"/>
      <feComposite operator="in" in2="blur-13"/>
      <feComposite in="SourceGraphic"/>
    </filter>
    <filter id="타원_28-2" x="202.491" y="31.8" width="28.188" height="28.188" filterUnits="userSpaceOnUse">
      <feOffset dx="3" dy="3" input="SourceAlpha"/>
      <feGaussianBlur stdDeviation="3" result="blur-14"/>
      <feFlood flood-opacity="0.161" result="color-7"/>
      <feComposite operator="out" in="SourceGraphic" in2="blur-14"/>
      <feComposite operator="in" in="color-7"/>
      <feComposite operator="in" in2="SourceGraphic"/>
    </filter>
    <filter id="패스_128" x="38.838" y="0" width="28.193" height="28.187" filterUnits="userSpaceOnUse">
      <feOffset dx="3" dy="3" input="SourceAlpha"/>
      <feGaussianBlur stdDeviation="3" result="blur-15"/>
      <feFlood flood-color="#fff"/>
      <feComposite operator="in" in2="blur-15"/>
      <feComposite in="SourceGraphic"/>
    </filter>
    <filter id="패스_128-2" x="38.838" y="0" width="28.193" height="28.187" filterUnits="userSpaceOnUse">
      <feOffset dx="3" dy="3" input="SourceAlpha"/>
      <feGaussianBlur stdDeviation="3" result="blur-16"/>
      <feFlood flood-opacity="0.161" result="color-8"/>
      <feComposite operator="out" in="SourceGraphic" in2="blur-16"/>
      <feComposite operator="in" in="color-8"/>
      <feComposite operator="in" in2="SourceGraphic"/>
    </filter>
    <filter id="패스_129" x="72.593" y="0" width="28.187" height="28.187" filterUnits="userSpaceOnUse">
      <feOffset dx="3" dy="3" input="SourceAlpha"/>
      <feGaussianBlur stdDeviation="3" result="blur-17"/>
      <feFlood flood-color="#fff"/>
      <feComposite operator="in" in2="blur-17"/>
      <feComposite in="SourceGraphic"/>
    </filter>
    <filter id="패스_129-2" x="72.593" y="0" width="28.187" height="28.187" filterUnits="userSpaceOnUse">
      <feOffset dx="3" dy="3" input="SourceAlpha"/>
      <feGaussianBlur stdDeviation="3" result="blur-18"/>
      <feFlood flood-opacity="0.161" result="color-9"/>
      <feComposite operator="out" in="SourceGraphic" in2="blur-18"/>
      <feComposite operator="in" in="color-9"/>
      <feComposite operator="in" in2="SourceGraphic"/>
    </filter>
    <filter id="타원_29" x="106.339" y="0" width="28.188" height="28.188" filterUnits="userSpaceOnUse">
      <feOffset dx="3" dy="3" input="SourceAlpha"/>
      <feGaussianBlur stdDeviation="3" result="blur-19"/>
      <feFlood flood-color="#fff"/>
      <feComposite operator="in" in2="blur-19"/>
      <feComposite in="SourceGraphic"/>
    </filter>
    <filter id="타원_29-2" x="106.339" y="0" width="28.188" height="28.188" filterUnits="userSpaceOnUse">
      <feOffset dx="3" dy="3" input="SourceAlpha"/>
      <feGaussianBlur stdDeviation="3" result="blur-20"/>
      <feFlood flood-opacity="0.161" result="color-10"/>
      <feComposite operator="out" in="SourceGraphic" in2="blur-20"/>
      <feComposite operator="in" in="color-10"/>
      <feComposite operator="in" in2="SourceGraphic"/>
    </filter>
    <filter id="패스_130" x="140.089" y="0" width="28.187" height="28.187" filterUnits="userSpaceOnUse">
      <feOffset dx="3" dy="3" input="SourceAlpha"/>
      <feGaussianBlur stdDeviation="3" result="blur-21"/>
      <feFlood flood-color="#fff"/>
      <feComposite operator="in" in2="blur-21"/>
      <feComposite in="SourceGraphic"/>
    </filter>
    <filter id="패스_130-2" x="140.089" y="0" width="28.187" height="28.187" filterUnits="userSpaceOnUse">
      <feOffset dx="3" dy="3" input="SourceAlpha"/>
      <feGaussianBlur stdDeviation="3" result="blur-22"/>
      <feFlood flood-opacity="0.161" result="color-11"/>
      <feComposite operator="out" in="SourceGraphic" in2="blur-22"/>
      <feComposite operator="in" in="color-11"/>
      <feComposite operator="in" in2="SourceGraphic"/>
    </filter>
    <filter id="패스_131" x="173.838" y="0" width="28.187" height="28.187" filterUnits="userSpaceOnUse">
      <feOffset dx="3" dy="3" input="SourceAlpha"/>
      <feGaussianBlur stdDeviation="3" result="blur-23"/>
      <feFlood flood-color="#fff"/>
      <feComposite operator="in" in2="blur-23"/>
      <feComposite in="SourceGraphic"/>
    </filter>
    <filter id="패스_131-2" x="173.838" y="0" width="28.187" height="28.187" filterUnits="userSpaceOnUse">
      <feOffset dx="3" dy="3" input="SourceAlpha"/>
      <feGaussianBlur stdDeviation="3" result="blur-24"/>
      <feFlood flood-opacity="0.161" result="color-12"/>
      <feComposite operator="out" in="SourceGraphic" in2="blur-24"/>
      <feComposite operator="in" in="color-12"/>
      <feComposite operator="in" in2="SourceGraphic"/>
    </filter>
    <filter id="패스_132" x="207.586" y="0" width="28.186" height="28.187" filterUnits="userSpaceOnUse">
      <feOffset dx="3" dy="3" input="SourceAlpha"/>
      <feGaussianBlur stdDeviation="3" result="blur-25"/>
      <feFlood flood-color="#fff"/>
      <feComposite operator="in" in2="blur-25"/>
      <feComposite in="SourceGraphic"/>
    </filter>
    <filter id="패스_132-2" x="207.586" y="0" width="28.186" height="28.187" filterUnits="userSpaceOnUse">
      <feOffset dx="3" dy="3" input="SourceAlpha"/>
      <feGaussianBlur stdDeviation="3" result="blur-26"/>
      <feFlood flood-opacity="0.161" result="color-13"/>
      <feComposite operator="out" in="SourceGraphic" in2="blur-26"/>
      <feComposite operator="in" in="color-13"/>
      <feComposite operator="in" in2="SourceGraphic"/>
    </filter>
    <filter id="패스_133" x="241.335" y="0" width="28.187" height="28.187" filterUnits="userSpaceOnUse">
      <feOffset dx="3" dy="3" input="SourceAlpha"/>
      <feGaussianBlur stdDeviation="3" result="blur-27"/>
      <feFlood flood-color="#fff"/>
      <feComposite operator="in" in2="blur-27"/>
      <feComposite in="SourceGraphic"/>
    </filter>
    <filter id="패스_133-2" x="241.335" y="0" width="28.187" height="28.187" filterUnits="userSpaceOnUse">
      <feOffset dx="3" dy="3" input="SourceAlpha"/>
      <feGaussianBlur stdDeviation="3" result="blur-28"/>
      <feFlood flood-opacity="0.161" result="color-14"/>
      <feComposite operator="out" in="SourceGraphic" in2="blur-28"/>
      <feComposite operator="in" in="color-14"/>
      <feComposite operator="in" in2="SourceGraphic"/>
    </filter>
  </defs>
  <g id="그룹_134" data-name="그룹 134" transform="translate(-942.479 -85.147)">
    <g data-type="innerShadowGroup">
      <g class="cls-30" transform="matrix(1, 0, 0, 1, 942.48, 85.15)">
        <path id="패스_123-3" data-name="패스 123" class="cls-1" d="M394.6,148.6a5.093,5.093,0,1,1-5.09,5.09A5.091,5.091,0,0,1,394.6,148.6Z" transform="translate(-383.51 -110.79)"/>
      </g>
      <g class="cls-29" transform="matrix(1, 0, 0, 1, 942.48, 85.15)">
        <path id="패스_123-4" data-name="패스 123" class="cls-2" d="M394.6,148.6a5.093,5.093,0,1,1-5.09,5.09A5.091,5.091,0,0,1,394.6,148.6Z" transform="translate(-383.51 -110.79)"/>
      </g>
    </g>
    <g data-type="innerShadowGroup">
      <g class="cls-28" transform="matrix(1, 0, 0, 1, 942.48, 85.15)">
        <ellipse id="타원_27-3" data-name="타원 27" class="cls-1" cx="5.094" cy="5.094" rx="5.094" ry="5.094" transform="translate(39.75 37.8)"/>
      </g>
      <g class="cls-27" transform="matrix(1, 0, 0, 1, 942.48, 85.15)">
        <ellipse id="타원_27-4" data-name="타원 27" class="cls-2" cx="5.094" cy="5.094" rx="5.094" ry="5.094" transform="translate(39.75 37.8)"/>
      </g>
    </g>
    <g data-type="innerShadowGroup">
      <g class="cls-26" transform="matrix(1, 0, 0, 1, 942.48, 85.15)">
        <path id="패스_124-3" data-name="패스 124" class="cls-1" d="M405.255,148.6a5.093,5.093,0,1,1-5.1,5.09A5.09,5.09,0,0,1,405.255,148.6Z" transform="translate(-326.66 -110.79)"/>
      </g>
      <g class="cls-25" transform="matrix(1, 0, 0, 1, 942.48, 85.15)">
        <path id="패스_124-4" data-name="패스 124" class="cls-2" d="M405.255,148.6a5.093,5.093,0,1,1-5.1,5.09A5.09,5.09,0,0,1,405.255,148.6Z" transform="translate(-326.66 -110.79)"/>
      </g>
    </g>
    <g data-type="innerShadowGroup">
      <g class="cls-24" transform="matrix(1, 0, 0, 1, 942.48, 85.15)">
        <path id="패스_125-3" data-name="패스 125" class="cls-1" d="M410.579,148.6a5.093,5.093,0,1,1-5.1,5.09A5.09,5.09,0,0,1,410.579,148.6Z" transform="translate(-298.24 -110.79)"/>
      </g>
      <g class="cls-23" transform="matrix(1, 0, 0, 1, 942.48, 85.15)">
        <path id="패스_125-4" data-name="패스 125" class="cls-2" d="M410.579,148.6a5.093,5.093,0,1,1-5.1,5.09A5.09,5.09,0,0,1,410.579,148.6Z" transform="translate(-298.24 -110.79)"/>
      </g>
    </g>
    <g data-type="innerShadowGroup">
      <g class="cls-22" transform="matrix(1, 0, 0, 1, 942.48, 85.15)">
        <path id="패스_126-3" data-name="패스 126" class="cls-1" d="M415.9,148.6a5.093,5.093,0,1,1-5.1,5.09A5.086,5.086,0,0,1,415.9,148.6Z" transform="translate(-269.81 -110.79)"/>
      </g>
      <g class="cls-21" transform="matrix(1, 0, 0, 1, 942.48, 85.15)">
        <path id="패스_126-4" data-name="패스 126" class="cls-2" d="M415.9,148.6a5.093,5.093,0,1,1-5.1,5.09A5.086,5.086,0,0,1,415.9,148.6Z" transform="translate(-269.81 -110.79)"/>
      </g>
    </g>
    <g data-type="innerShadowGroup">
      <g class="cls-20" transform="matrix(1, 0, 0, 1, 942.48, 85.15)">
        <path id="패스_127-3" data-name="패스 127" class="cls-1" d="M421.226,148.6a5.093,5.093,0,1,1-5.1,5.09A5.086,5.086,0,0,1,421.226,148.6Z" transform="translate(-241.39 -110.79)"/>
      </g>
      <g class="cls-19" transform="matrix(1, 0, 0, 1, 942.48, 85.15)">
        <path id="패스_127-4" data-name="패스 127" class="cls-2" d="M421.226,148.6a5.093,5.093,0,1,1-5.1,5.09A5.086,5.086,0,0,1,421.226,148.6Z" transform="translate(-241.39 -110.79)"/>
      </g>
    </g>
    <g data-type="innerShadowGroup">
      <g class="cls-18" transform="matrix(1, 0, 0, 1, 942.48, 85.15)">
        <ellipse id="타원_28-3" data-name="타원 28" class="cls-1" cx="5.094" cy="5.094" rx="5.094" ry="5.094" transform="translate(208.49 37.8)"/>
      </g>
      <g class="cls-17" transform="matrix(1, 0, 0, 1, 942.48, 85.15)">
        <ellipse id="타원_28-4" data-name="타원 28" class="cls-2" cx="5.094" cy="5.094" rx="5.094" ry="5.094" transform="translate(208.49 37.8)"/>
      </g>
    </g>
    <g data-type="innerShadowGroup">
      <g class="cls-16" transform="matrix(1, 0, 0, 1, 942.48, 85.15)">
        <path id="패스_128-3" data-name="패스 128" class="cls-1" d="M400.734,143.58a5.093,5.093,0,1,1-5.1,5.1A5.1,5.1,0,0,1,400.734,143.58Z" transform="translate(-350.8 -137.58)"/>
      </g>
      <g class="cls-15" transform="matrix(1, 0, 0, 1, 942.48, 85.15)">
        <path id="패스_128-4" data-name="패스 128" class="cls-2" d="M400.734,143.58a5.093,5.093,0,1,1-5.1,5.1A5.1,5.1,0,0,1,400.734,143.58Z" transform="translate(-350.8 -137.58)"/>
      </g>
    </g>
    <g data-type="innerShadowGroup">
      <g class="cls-14" transform="matrix(1, 0, 0, 1, 942.48, 85.15)">
        <path id="패스_129-3" data-name="패스 129" class="cls-1" d="M406.052,143.58a5.093,5.093,0,1,1-5.09,5.1A5.1,5.1,0,0,1,406.052,143.58Z" transform="translate(-322.37 -137.58)"/>
      </g>
      <g class="cls-13" transform="matrix(1, 0, 0, 1, 942.48, 85.15)">
        <path id="패스_129-4" data-name="패스 129" class="cls-2" d="M406.052,143.58a5.093,5.093,0,1,1-5.09,5.1A5.1,5.1,0,0,1,406.052,143.58Z" transform="translate(-322.37 -137.58)"/>
      </g>
    </g>
    <g data-type="innerShadowGroup">
      <g class="cls-12" transform="matrix(1, 0, 0, 1, 942.48, 85.15)">
        <ellipse id="타원_29-3" data-name="타원 29" class="cls-1" cx="5.094" cy="5.094" rx="5.094" ry="5.094" transform="translate(112.34 6)"/>
      </g>
      <g class="cls-11" transform="matrix(1, 0, 0, 1, 942.48, 85.15)">
        <ellipse id="타원_29-4" data-name="타원 29" class="cls-2" cx="5.094" cy="5.094" rx="5.094" ry="5.094" transform="translate(112.34 6)"/>
      </g>
    </g>
    <g data-type="innerShadowGroup">
      <g class="cls-10" transform="matrix(1, 0, 0, 1, 942.48, 85.15)">
        <path id="패스_130-3" data-name="패스 130" class="cls-1" d="M416.7,143.58a5.093,5.093,0,1,1-5.09,5.1A5.1,5.1,0,0,1,416.7,143.58Z" transform="translate(-265.52 -137.58)"/>
      </g>
      <g class="cls-9" transform="matrix(1, 0, 0, 1, 942.48, 85.15)">
        <path id="패스_130-4" data-name="패스 130" class="cls-2" d="M416.7,143.58a5.093,5.093,0,1,1-5.09,5.1A5.1,5.1,0,0,1,416.7,143.58Z" transform="translate(-265.52 -137.58)"/>
      </g>
    </g>
    <g data-type="innerShadowGroup">
      <g class="cls-8" transform="matrix(1, 0, 0, 1, 942.48, 85.15)">
        <path id="패스_131-3" data-name="패스 131" class="cls-1" d="M422.024,143.58a5.093,5.093,0,1,1-5.09,5.1A5.1,5.1,0,0,1,422.024,143.58Z" transform="translate(-237.1 -137.58)"/>
      </g>
      <g class="cls-7" transform="matrix(1, 0, 0, 1, 942.48, 85.15)">
        <path id="패스_131-4" data-name="패스 131" class="cls-2" d="M422.024,143.58a5.093,5.093,0,1,1-5.09,5.1A5.1,5.1,0,0,1,422.024,143.58Z" transform="translate(-237.1 -137.58)"/>
      </g>
    </g>
    <g data-type="innerShadowGroup">
      <g class="cls-6" transform="matrix(1, 0, 0, 1, 942.48, 85.15)">
        <path id="패스_132-3" data-name="패스 132" class="cls-1" d="M427.348,143.58a5.093,5.093,0,1,1-5.09,5.1A5.1,5.1,0,0,1,427.348,143.58Z" transform="translate(-208.67 -137.58)"/>
      </g>
      <g class="cls-5" transform="matrix(1, 0, 0, 1, 942.48, 85.15)">
        <path id="패스_132-4" data-name="패스 132" class="cls-2" d="M427.348,143.58a5.093,5.093,0,1,1-5.09,5.1A5.1,5.1,0,0,1,427.348,143.58Z" transform="translate(-208.67 -137.58)"/>
      </g>
    </g>
    <g data-type="innerShadowGroup">
      <g class="cls-4" transform="matrix(1, 0, 0, 1, 942.48, 85.15)">
        <path id="패스_133-3" data-name="패스 133" class="cls-1" d="M432.678,143.58a5.093,5.093,0,1,1-5.1,5.1A5.1,5.1,0,0,1,432.678,143.58Z" transform="translate(-180.25 -137.58)"/>
      </g>
      <g class="cls-3" transform="matrix(1, 0, 0, 1, 942.48, 85.15)">
        <path id="패스_133-4" data-name="패스 133" class="cls-2" d="M432.678,143.58a5.093,5.093,0,1,1-5.1,5.1A5.1,5.1,0,0,1,432.678,143.58Z" transform="translate(-180.25 -137.58)"/>
      </g>
    </g>
  </g>
</svg>
