<svg xmlns="http://www.w3.org/2000/svg" xmlns:xlink="http://www.w3.org/1999/xlink" width="200" height="200" viewBox="0 0 200 200">
  <defs>
    <filter id="패스_237" x="0" y="0" width="200" height="200" filterUnits="userSpaceOnUse">
      <feOffset dx="-3" dy="-3" input="SourceAlpha"/>
      <feGaussianBlur stdDeviation="15" result="blur"/>
      <feFlood flood-color="#3068d1" flood-opacity="0.302" result="color"/>
      <feComposite operator="out" in="SourceGraphic" in2="blur"/>
      <feComposite operator="in" in="color"/>
      <feComposite operator="in" in2="SourceGraphic"/>
    </filter>
  </defs>
  <g data-type="innerShadowGroup">
    <g id="패스_237-2" data-name="패스 237" fill="#fff" opacity="0.95">
      <path d="M 170 197.5 L 30 197.5 C 26.28641700744629 197.5 22.68524932861328 196.7732543945312 19.29652786254883 195.3399505615234 C 16.02213859558105 193.9550018310547 13.08091640472412 191.9718017578125 10.55455589294434 189.4454498291016 C 8.028194427490234 186.9190826416016 6.045000076293945 183.9778594970703 4.660055637359619 180.7034759521484 C 3.226749897003174 177.3147430419922 2.5 173.7135772705078 2.5 170 L 2.5 30 C 2.5 26.28641700744629 3.226749897003174 22.68524932861328 4.660055637359619 19.29652786254883 C 6.045000076293945 16.02213859558105 8.02822208404541 13.08091640472412 10.55455589294434 10.55455589294434 C 13.08091640472412 8.02822208404541 16.02213859558105 6.045000076293945 19.29652786254883 4.660055637359619 C 22.68524932861328 3.226749897003174 26.28641700744629 2.5 30 2.5 L 170 2.5 C 173.7135772705078 2.5 177.3147430419922 3.226749897003174 180.7034759521484 4.660055637359619 C 183.9778594970703 6.045000076293945 186.9190826416016 8.028194427490234 189.4454498291016 10.55455589294434 C 191.9718017578125 13.08091640472412 193.9550018310547 16.02213859558105 195.3399505615234 19.29652786254883 C 196.7732543945312 22.68524932861328 197.5 26.28641700744629 197.5 30 L 197.5 170 C 197.5 173.7135772705078 196.7732543945312 177.3147430419922 195.3399505615234 180.7034759521484 C 193.9550018310547 183.9778594970703 191.9718017578125 186.9190826416016 189.4454498291016 189.4454498291016 C 186.9190826416016 191.9718017578125 183.9778594970703 193.9550018310547 180.7034759521484 195.3399505615234 C 177.3147430419922 196.7732543945312 173.7135772705078 197.5 170 197.5 Z" stroke="none"/>
      <path d="M 30 5 C 26.62281799316406 5 23.34928894042969 5.660293579101562 20.27041625976562 6.962554931640625 C 17.29400634765625 8.221466064453125 14.61988830566406 10.02476501464844 12.32232666015625 12.32232666015625 C 10.02476501464844 14.61988830566406 8.221466064453125 17.29400634765625 6.962554931640625 20.27041625976562 C 5.660293579101562 23.34928894042969 5 26.62281799316406 5 30 L 5 170 C 5 173.3771820068359 5.660293579101562 176.6506805419922 6.962554931640625 179.7295837402344 C 8.221466064453125 182.7059631347656 10.02476501464844 185.3800811767578 12.32232666015625 187.6776733398438 C 14.61988830566406 189.9752349853516 17.29400634765625 191.7785339355469 20.27041625976562 193.0374450683594 C 23.34928894042969 194.3397064208984 26.62281799316406 195 30 195 L 170 195 C 173.3771820068359 195 176.6506805419922 194.3397064208984 179.7295837402344 193.0374450683594 C 182.7059631347656 191.7785339355469 185.3800811767578 189.9752349853516 187.6776733398438 187.6776733398438 C 189.9752349853516 185.3800811767578 191.7785339355469 182.7059631347656 193.0374450683594 179.7295837402344 C 194.3397064208984 176.6506805419922 195 173.3771820068359 195 170 L 195 30 C 195 26.62281799316406 194.3397064208984 23.34928894042969 193.0374450683594 20.27041625976562 C 191.7785339355469 17.29400634765625 189.9752349853516 14.61988830566406 187.6776733398438 12.32232666015625 C 185.3800811767578 10.02476501464844 182.7059631347656 8.221466064453125 179.7295837402344 6.962554931640625 C 176.6506805419922 5.660293579101562 173.3771820068359 5 170 5 L 30 5 M 30 0 L 170 0 C 186.5685272216797 0 200 13.43144226074219 200 30 L 200 170 C 200 186.5685272216797 186.5685272216797 200 170 200 L 30 200 C 13.43144226074219 200 0 186.5685272216797 0 170 L 0 30 C 0 13.43144226074219 13.43144226074219 0 30 0 Z" stroke="none"/>
    </g>
    <g transform="matrix(1, 0, 0, 1, 0, 0)" filter="url(#패스_237)">
      <g id="패스_237-3" data-name="패스 237" fill="#fff" opacity="0.95">
        <path d="M 170 197.5 L 30 197.5 C 26.28641700744629 197.5 22.68524932861328 196.7732543945312 19.29652786254883 195.3399505615234 C 16.02213859558105 193.9550018310547 13.08091640472412 191.9718017578125 10.55455589294434 189.4454498291016 C 8.028194427490234 186.9190826416016 6.045000076293945 183.9778594970703 4.660055637359619 180.7034759521484 C 3.226749897003174 177.3147430419922 2.5 173.7135772705078 2.5 170 L 2.5 30 C 2.5 26.28641700744629 3.226749897003174 22.68524932861328 4.660055637359619 19.29652786254883 C 6.045000076293945 16.02213859558105 8.02822208404541 13.08091640472412 10.55455589294434 10.55455589294434 C 13.08091640472412 8.02822208404541 16.02213859558105 6.045000076293945 19.29652786254883 4.660055637359619 C 22.68524932861328 3.226749897003174 26.28641700744629 2.5 30 2.5 L 170 2.5 C 173.7135772705078 2.5 177.3147430419922 3.226749897003174 180.7034759521484 4.660055637359619 C 183.9778594970703 6.045000076293945 186.9190826416016 8.028194427490234 189.4454498291016 10.55455589294434 C 191.9718017578125 13.08091640472412 193.9550018310547 16.02213859558105 195.3399505615234 19.29652786254883 C 196.7732543945312 22.68524932861328 197.5 26.28641700744629 197.5 30 L 197.5 170 C 197.5 173.7135772705078 196.7732543945312 177.3147430419922 195.3399505615234 180.7034759521484 C 193.9550018310547 183.9778594970703 191.9718017578125 186.9190826416016 189.4454498291016 189.4454498291016 C 186.9190826416016 191.9718017578125 183.9778594970703 193.9550018310547 180.7034759521484 195.3399505615234 C 177.3147430419922 196.7732543945312 173.7135772705078 197.5 170 197.5 Z" stroke="none"/>
        <path d="M 30 5 C 26.62281799316406 5 23.34928894042969 5.660293579101562 20.27041625976562 6.962554931640625 C 17.29400634765625 8.221466064453125 14.61988830566406 10.02476501464844 12.32232666015625 12.32232666015625 C 10.02476501464844 14.61988830566406 8.221466064453125 17.29400634765625 6.962554931640625 20.27041625976562 C 5.660293579101562 23.34928894042969 5 26.62281799316406 5 30 L 5 170 C 5 173.3771820068359 5.660293579101562 176.6506805419922 6.962554931640625 179.7295837402344 C 8.221466064453125 182.7059631347656 10.02476501464844 185.3800811767578 12.32232666015625 187.6776733398438 C 14.61988830566406 189.9752349853516 17.29400634765625 191.7785339355469 20.27041625976562 193.0374450683594 C 23.34928894042969 194.3397064208984 26.62281799316406 195 30 195 L 170 195 C 173.3771820068359 195 176.6506805419922 194.3397064208984 179.7295837402344 193.0374450683594 C 182.7059631347656 191.7785339355469 185.3800811767578 189.9752349853516 187.6776733398438 187.6776733398438 C 189.9752349853516 185.3800811767578 191.7785339355469 182.7059631347656 193.0374450683594 179.7295837402344 C 194.3397064208984 176.6506805419922 195 173.3771820068359 195 170 L 195 30 C 195 26.62281799316406 194.3397064208984 23.34928894042969 193.0374450683594 20.27041625976562 C 191.7785339355469 17.29400634765625 189.9752349853516 14.61988830566406 187.6776733398438 12.32232666015625 C 185.3800811767578 10.02476501464844 182.7059631347656 8.221466064453125 179.7295837402344 6.962554931640625 C 176.6506805419922 5.660293579101562 173.3771820068359 5 170 5 L 30 5 M 30 0 L 170 0 C 186.5685272216797 0 200 13.43144226074219 200 30 L 200 170 C 200 186.5685272216797 186.5685272216797 200 170 200 L 30 200 C 13.43144226074219 200 0 186.5685272216797 0 170 L 0 30 C 0 13.43144226074219 13.43144226074219 0 30 0 Z" stroke="none"/>
      </g>
    </g>
    <g id="패스_237-4" data-name="패스 237" fill="none" opacity="0.95">
      <path d="M 170 197.5 L 30 197.5 C 26.28641700744629 197.5 22.68524932861328 196.7732543945312 19.29652786254883 195.3399505615234 C 16.02213859558105 193.9550018310547 13.08091640472412 191.9718017578125 10.55455589294434 189.4454498291016 C 8.028194427490234 186.9190826416016 6.045000076293945 183.9778594970703 4.660055637359619 180.7034759521484 C 3.226749897003174 177.3147430419922 2.5 173.7135772705078 2.5 170 L 2.5 30 C 2.5 26.28641700744629 3.226749897003174 22.68524932861328 4.660055637359619 19.29652786254883 C 6.045000076293945 16.02213859558105 8.02822208404541 13.08091640472412 10.55455589294434 10.55455589294434 C 13.08091640472412 8.02822208404541 16.02213859558105 6.045000076293945 19.29652786254883 4.660055637359619 C 22.68524932861328 3.226749897003174 26.28641700744629 2.5 30 2.5 L 170 2.5 C 173.7135772705078 2.5 177.3147430419922 3.226749897003174 180.7034759521484 4.660055637359619 C 183.9778594970703 6.045000076293945 186.9190826416016 8.028194427490234 189.4454498291016 10.55455589294434 C 191.9718017578125 13.08091640472412 193.9550018310547 16.02213859558105 195.3399505615234 19.29652786254883 C 196.7732543945312 22.68524932861328 197.5 26.28641700744629 197.5 30 L 197.5 170 C 197.5 173.7135772705078 196.7732543945312 177.3147430419922 195.3399505615234 180.7034759521484 C 193.9550018310547 183.9778594970703 191.9718017578125 186.9190826416016 189.4454498291016 189.4454498291016 C 186.9190826416016 191.9718017578125 183.9778594970703 193.9550018310547 180.7034759521484 195.3399505615234 C 177.3147430419922 196.7732543945312 173.7135772705078 197.5 170 197.5 Z" stroke="none"/>
      <path d="M 30 5 C 26.62281799316406 5 23.34928894042969 5.660293579101562 20.27041625976562 6.962554931640625 C 17.29400634765625 8.221466064453125 14.61988830566406 10.02476501464844 12.32232666015625 12.32232666015625 C 10.02476501464844 14.61988830566406 8.221466064453125 17.29400634765625 6.962554931640625 20.27041625976562 C 5.660293579101562 23.34928894042969 5 26.62281799316406 5 30 L 5 170 C 5 173.3771820068359 5.660293579101562 176.6506805419922 6.962554931640625 179.7295837402344 C 8.221466064453125 182.7059631347656 10.02476501464844 185.3800811767578 12.32232666015625 187.6776733398438 C 14.61988830566406 189.9752349853516 17.29400634765625 191.7785339355469 20.27041625976562 193.0374450683594 C 23.34928894042969 194.3397064208984 26.62281799316406 195 30 195 L 170 195 C 173.3771820068359 195 176.6506805419922 194.3397064208984 179.7295837402344 193.0374450683594 C 182.7059631347656 191.7785339355469 185.3800811767578 189.9752349853516 187.6776733398438 187.6776733398438 C 189.9752349853516 185.3800811767578 191.7785339355469 182.7059631347656 193.0374450683594 179.7295837402344 C 194.3397064208984 176.6506805419922 195 173.3771820068359 195 170 L 195 30 C 195 26.62281799316406 194.3397064208984 23.34928894042969 193.0374450683594 20.27041625976562 C 191.7785339355469 17.29400634765625 189.9752349853516 14.61988830566406 187.6776733398438 12.32232666015625 C 185.3800811767578 10.02476501464844 182.7059631347656 8.221466064453125 179.7295837402344 6.962554931640625 C 176.6506805419922 5.660293579101562 173.3771820068359 5 170 5 L 30 5 M 30 0 L 170 0 C 186.5685272216797 0 200 13.43144226074219 200 30 L 200 170 C 200 186.5685272216797 186.5685272216797 200 170 200 L 30 200 C 13.43144226074219 200 0 186.5685272216797 0 170 L 0 30 C 0 13.43144226074219 13.43144226074219 0 30 0 Z" stroke="none" fill="#fff"/>
    </g>
  </g>
</svg>
